<svg t="1577957048449" class="icon" viewBox="0 0 1024 1024" version="1.1" xmlns="http://www.w3.org/2000/svg" p-id="9240" width="16" height="16"><path d="M851.2 953.6c-12.8 0-19.2-6.4-19.2-19.2V556.8c0-64-44.8-108.8-96-108.8h-448C236.8 448 192 492.8 192 556.8v377.6c0 12.8-6.4 19.2-19.2 19.2s-19.2-6.4-19.2-19.2V556.8c0-83.2 57.6-147.2 134.4-147.2h448c70.4 0 134.4 64 134.4 147.2v377.6c0 12.8-12.8 19.2-19.2 19.2z" fill="" p-id="9241"></path><path d="M947.2 960H76.8c-6.4 0-12.8-6.4-12.8-19.2s6.4-19.2 19.2-19.2h864c12.8 0 19.2 6.4 19.2 19.2s-12.8 19.2-19.2 19.2z" fill="" p-id="9242"></path><path d="M556.8 960h-256c-25.6 0-44.8-19.2-44.8-44.8v-236.8c0-25.6 19.2-44.8 44.8-44.8h249.6c25.6 0 44.8 19.2 44.8 44.8v236.8c6.4 25.6-19.2 44.8-38.4 44.8z m-256-288c-6.4 0-6.4 0-6.4 6.4v236.8c0 6.4 0 6.4 6.4 6.4h249.6c6.4 0 6.4 0 6.4-6.4v-236.8c0-6.4 0-6.4-6.4-6.4H300.8zM627.2 448H512c-25.6 0-44.8-19.2-44.8-44.8v-64c0-25.6 19.2-44.8 44.8-44.8h115.2c25.6 0 44.8 19.2 44.8 44.8v64c0 25.6-19.2 44.8-44.8 44.8zM512 332.8c-6.4 0-6.4 0-6.4 6.4v64c0 6.4 0 6.4 6.4 6.4h115.2c6.4 0 6.4 0 6.4-6.4v-64c0-6.4 0-6.4-6.4-6.4H512zM851.2 550.4c-12.8 0-19.2-6.4-19.2-19.2V102.4l-70.4-6.4-6.4 326.4c0 12.8-6.4 19.2-19.2 19.2s-19.2-6.4-19.2-19.2v-320c0-25.6 19.2-44.8 44.8-44.8H832c25.6 0 44.8 19.2 44.8 44.8v428.8c-6.4 6.4-19.2 19.2-25.6 19.2z" fill="" p-id="9243"></path><path d="M428.8 953.6c-12.8 0-19.2-6.4-19.2-19.2v-281.6c0-12.8 6.4-19.2 19.2-19.2s19.2 6.4 19.2 19.2v281.6c0 12.8-12.8 19.2-19.2 19.2zM582.4 556.8H275.2c-12.8 0-19.2-6.4-19.2-19.2s6.4-19.2 19.2-19.2H576c12.8 0 19.2 6.4 19.2 19.2s-6.4 19.2-12.8 19.2z" fill="" p-id="9244"></path></svg>
