<?xml version="1.0" standalone="no"?><!DOCTYPE svg PUBLIC "-//W3C//DTD SVG 1.1//EN" "http://www.w3.org/Graphics/SVG/1.1/DTD/svg11.dtd"><svg t="1577956091718" class="icon" viewBox="0 0 1024 1024" version="1.1" xmlns="http://www.w3.org/2000/svg" p-id="2421" width="16" height="16" xmlns:xlink="http://www.w3.org/1999/xlink"><defs><style type="text/css"></style></defs><path d="M380.48768 582.3488c-16.0256 9.32864-22.9888-5.0176-22.9888-5.0176-1.71008-7.9872-2.68288-16.2816-2.68288-24.832 0-61.16352 46.2336-111.0016 103.58784-112.5376l-40.48896-26.66496c-7.68-5.0688-10.0352-15.74912-5.26336-23.87968 4.7616-8.16128 14.85824-10.63936 22.51776-5.59104l69.7856 45.96736c3.67616 2.42688 6.2976 6.2976 7.28064 10.78272 0.98304 4.47488 0.26624 9.19552-2.03776 13.09696l-43.3664 74.00448c-3.08224 5.28384-8.42752 8.192-13.88544 8.192-2.94912 0-5.91872-0.83968-8.6016-2.6112-7.68-5.05856-10.0352-15.73888-5.2736-23.88992l20.38784-34.78528c-39.82336 0.91136-71.95648 35.4816-71.95648 77.91616 0 4.03456 0.38912 7.92576 0.94208 11.776C388.46464 564.2752 392.1408 576.23552 380.48768 582.3488zM697.67168 550.93248c-5.59104-7.59808-16.3328-9.65632-24.02304-4.608l-40.48896 26.66496c21.248-53.28896-6.26688-115.44576-62.47424-139.63264-7.84384-3.36896-15.83104-5.75488-23.8592-7.35232 0 0-15.94368 0.7168-13.70112 19.13856 1.024 13.11744 13.44512 14.45888 13.44512 14.45888 3.75808 1.01376 7.49568 2.2016 11.19232 3.7888 38.99392 16.78336 58.05056 59.94496 43.1616 96.90112l-23.9104-32.48128c-5.60128-7.59808-16.34304-9.65632-24.02304-4.608-2.68288 1.77152-4.63872 4.16768-5.80608 6.88128-2.16064 5.0176-1.5872 11.07968 2.048 16.00512l50.8416 69.0688c2.67264 3.64544 6.72768 6.17472 11.23328 7.04512 4.5056 0.8704 9.09312-0.01024 12.78976-2.42688l69.79584-45.94688C701.56288 568.7808 703.27296 558.52032 697.67168 550.93248zM582.656 647.09632c-11.45856-6.48192-19.51744 3.09248-19.51744 3.09248-2.93888 2.54976-6.01088 4.98688-9.39008 7.168-35.6864 22.97856-82.15552 14.70464-104.48896-18.2784l40.30464-1.72032c9.4208-0.39936 17.12128-8.16128 17.22368-17.3568 0.03072-3.20512-0.86016-6.16448-2.46784-8.6528-2.94912-4.58752-8.30464-7.49568-14.40768-7.22944l-85.69856 3.60448c-4.51584 0.2048-8.87808 2.17088-12.11392 5.38624-3.2256 3.26656-5.0688 7.56736-5.12 11.9808l-0.83968 83.5584c-0.09216 9.17504 7.45472 16.31232 16.88576 15.91296 9.4208-0.38912 17.12128-8.18176 17.22368-17.3568l0.49152-48.47616c32.34816 47.39072 99.28704 59.24864 150.71232 26.13248 7.17824-4.62848 13.6192-9.9328 19.41504-15.68768C590.87872 669.16352 599.18336 655.53408 582.656 647.09632zM865.81248 183.296l0 4.5056c0 22.40512-18.15552 64.21504-40.5504 64.21504l-25.56928 0-31.35488 664.02304c-0.67584 14.41792-12.56448 25.76384-27.00288 25.76384l-423.5264 0c-14.3872 0-26.24512-11.264-26.99264-25.64096l-34.49856-664.13568-25.8048 0c-22.39488 0-40.5504-41.80992-40.5504-64.21504L189.96224 183.296c0-22.40512 18.15552-40.5504 40.5504-40.5504l594.7392 0C847.65696 142.7456 865.81248 160.90112 865.81248 183.296zM745.5744 252.01664 310.46656 252.01664l13.23008 254.8224c-3.072 12.04224-4.72064 24.63744-4.72064 37.60128 0 10.71104 1.16736 21.59616 3.4816 32.34816l0.90112 4.22912 1.88416 3.88096c4.47488 9.216 13.62944 19.42528 26.66496 24.71936-0.34816 2.33472-0.73728 4.6592-0.768 7.04512l-0.83968 83.54816c-0.14336 13.8752 5.13024 26.9312 14.85824 36.75136 9.82016 9.92256 22.99904 15.39072 37.12 15.39072l2.23232-0.0512c21.25824-0.88064 39.23968-13.90592 47.19616-32.21504 17.5104 7.3728 36.7104 11.32544 56.54528 11.32544l0.01024 0c29.15328 0 57.72288-8.46848 82.6368-24.5248 8.96-5.77536 17.4592-12.63616 25.2416-20.3776l3.08224-3.072 2.26304-3.70688c2.29376-3.74784 8.58112-15.88224 7.0144-31.49824 5.38624-1.45408 10.60864-3.52256 15.3088-6.61504l69.74464-45.90592c11.79648-7.74144 19.97824-20.10112 22.45632-33.92512 1.80224-10.0864 0.4096-20.48-3.64544-29.82912L745.5744 252.01664z" p-id="2422"></path></svg>