<svg t="1577957175617" class="icon" viewBox="0 0 1024 1024" version="1.1" xmlns="http://www.w3.org/2000/svg" p-id="10382" width="16" height="16"><path d="M512 320c-105.6 0-192 86.4-192 192s86.4 192 192 192 192-86.4 192-192-86.4-192-192-192z m0 320c-70.4 0-128-57.6-128-128s57.6-128 128-128 128 57.6 128 128-57.6 128-128 128z m428.8-156.8C883.2 403.2 713.6 192 512 192 310.4 192 140.8 403.2 83.2 483.2c-12.8 19.2-12.8 41.6 0 60.8 57.6 76.8 227.2 288 428.8 288 201.6 0 371.2-211.2 428.8-291.2 12.8-16 12.8-41.6 0-57.6z m-64 48C835.2 588.8 688 768 512 768S188.8 588.8 147.2 531.2c-9.6-12.8-9.6-25.6 0-38.4C188.8 435.2 336 256 512 256s323.2 179.2 364.8 236.8c9.6 12.8 9.6 25.6 0 38.4z" p-id="10383"></path></svg>
